<?xml version="1.0" encoding="UTF-8"?>
<!DOCTYPE svg PUBLIC "-//W3C//DTD SVG 1.1//EN" "http://www.w3.org/Graphics/SVG/1.1/DTD/svg11.dtd">
<svg xmlns="http://www.w3.org/2000/svg" version="1.1" width="2048px" height="2048px" style="shape-rendering:geometricPrecision; text-rendering:geometricPrecision; image-rendering:optimizeQuality; fill-rule:evenodd; clip-rule:evenodd" xmlns:xlink="http://www.w3.org/1999/xlink">
<g><path style="opacity:0.998" fill="#484c5a" d="M 548.5,-0.5 C 560.833,-0.5 573.167,-0.5 585.5,-0.5C 610.174,22.84 635.174,45.84 660.5,68.5C 661.543,71.0562 663.21,73.2228 665.5,75C 768.134,169.299 870.467,263.966 972.5,359C 980.167,359.667 987.833,359.667 995.5,359C 1087.33,253.167 1179.17,147.333 1271,41.5C 1272.42,39.5952 1273.59,37.5952 1274.5,35.5C 1285.3,23.9133 1295.63,11.9133 1305.5,-0.5C 1315.5,-0.5 1325.5,-0.5 1335.5,-0.5C 1323.5,13.8333 1311.5,28.1667 1299.5,42.5C 1207.47,149.535 1116.14,257.202 1025.5,365.5C 1056.19,378.673 1084.86,395.173 1111.5,415C 1150.63,444.322 1189.13,474.489 1227,505.5C 1228.12,507.765 1228.95,510.099 1229.5,512.5C 1227.12,516.255 1224.46,516.421 1221.5,513C 1072.83,512.333 924.167,512.333 775.5,513C 772.544,516.421 769.877,516.255 767.5,512.5C 769.228,505.533 772.895,499.699 778.5,495C 806.167,470.667 833.833,446.333 861.5,422C 886.297,400.763 913.297,382.763 942.5,368C 845.167,276.667 747.833,185.333 650.5,94C 644.941,88.9337 639.275,84.1004 633.5,79.5C 605.14,52.8054 576.807,26.1388 548.5,-0.5 Z"/></g>
<g><path style="opacity:0.998" fill="#fe4866" d="M 1274.5,35.5 C 1273.59,37.5952 1272.42,39.5952 1271,41.5C 1179.17,147.333 1087.33,253.167 995.5,359C 987.833,359.667 980.167,359.667 972.5,359C 870.467,263.966 768.134,169.299 665.5,75C 663.21,73.2228 661.543,71.0562 660.5,68.5C 861.767,-5.19108 1066.43,-16.1911 1274.5,35.5 Z"/></g>
<g><path style="opacity:0.998" fill="#fe4866" d="M 1299.5,42.5 C 1545.55,116.463 1738.38,260.796 1878,475.5C 2011.27,690.813 2060.27,924.147 2025,1175.5C 2009.98,1276.28 1980.15,1372.28 1935.5,1463.5C 1909.17,1463.5 1882.83,1463.5 1856.5,1463.5C 1856.67,1250.83 1856.5,1038.17 1856,825.5C 1845.32,710.237 1791.49,621.737 1694.5,560C 1648.14,532.882 1598.14,517.215 1544.5,513C 1439.5,512.5 1334.5,512.333 1229.5,512.5C 1228.95,510.099 1228.12,507.765 1227,505.5C 1189.13,474.489 1150.63,444.322 1111.5,415C 1084.86,395.173 1056.19,378.673 1025.5,365.5C 1116.14,257.202 1207.47,149.535 1299.5,42.5 Z"/></g>
<g><path style="opacity:0.998" fill="#fe4866" d="M 633.5,79.5 C 639.275,84.1004 644.941,88.9337 650.5,94C 747.833,185.333 845.167,276.667 942.5,368C 913.297,382.763 886.297,400.763 861.5,422C 833.833,446.333 806.167,470.667 778.5,495C 772.895,499.699 769.228,505.533 767.5,512.5C 678.166,512.333 588.833,512.5 499.5,513C 385.054,524.268 297.221,578.101 236,674.5C 208.686,720.445 193.019,770.111 189,823.5C 188.5,1036.83 188.333,1250.17 188.5,1463.5C 160.5,1463.5 132.5,1463.5 104.5,1463.5C 37.2661,1324.19 3.59944,1177.02 3.5,1022C 6.98267,751.374 100.149,517.54 283,320.5C 383.095,215.919 499.928,135.585 633.5,79.5 Z"/></g>
<g><path style="opacity:1" fill="#505563" d="M 767.5,512.5 C 769.877,516.255 772.544,516.421 775.5,513C 924.167,512.333 1072.83,512.333 1221.5,513C 1224.46,516.421 1227.12,516.255 1229.5,512.5C 1334.5,512.333 1439.5,512.5 1544.5,513C 1598.14,517.215 1648.14,532.882 1694.5,560C 1791.49,621.737 1845.32,710.237 1856,825.5C 1856.5,1038.17 1856.67,1250.83 1856.5,1463.5C 1860.32,1524.75 1849.98,1583.41 1825.5,1639.5C 1824.46,1640.93 1823.8,1642.6 1823.5,1644.5C 1792.92,1706.66 1747.58,1754.99 1687.5,1789.5C 1685.22,1789.98 1683.22,1790.98 1681.5,1792.5C 1637.3,1815.47 1590.3,1828.63 1540.5,1832C 1193.5,1832.67 846.5,1832.67 499.5,1832C 445.66,1827.88 395.66,1812.05 349.5,1784.5C 347.142,1782.32 344.475,1780.66 341.5,1779.5C 294.875,1750.21 258.208,1711.54 231.5,1663.5C 231.008,1661.18 230.008,1659.18 228.5,1657.5C 197.387,1596.6 184.053,1531.94 188.5,1463.5C 188.333,1250.17 188.5,1036.83 189,823.5C 193.019,770.111 208.686,720.445 236,674.5C 297.221,578.101 385.054,524.268 499.5,513C 588.833,512.5 678.166,512.333 767.5,512.5 Z"/></g>
<g><path style="opacity:1" fill="#8ce0dd" d="M 532.5,624.5 C 788.848,624.011 1045.18,624.511 1301.5,626C 1406.24,640.264 1481.74,694.764 1528,789.5C 1539.73,816.033 1547.4,843.7 1551,872.5C 1552.65,1069.48 1552.99,1266.48 1552,1463.5C 1544.09,1559.87 1499.92,1634.37 1419.5,1687C 1383.04,1708.71 1343.7,1722.04 1301.5,1727C 1044.85,1728.65 788.179,1728.99 531.5,1728C 437.595,1718.33 365.095,1674.16 314,1595.5C 290.081,1555.41 276.414,1512.08 273,1465.5C 272.333,1271.83 272.333,1078.17 273,884.5C 282.374,790.202 326.54,717.368 405.5,666C 444.765,642.411 487.098,628.578 532.5,624.5 Z"/></g>
<g><path style="opacity:1" fill="#484c5a" d="M 1650.5,864.5 C 1685.54,864.034 1720.54,864.534 1755.5,866C 1778.78,871.942 1792.28,886.775 1796,910.5C 1796.67,967.833 1796.67,1025.17 1796,1082.5C 1791.5,1108.33 1776.33,1123.5 1750.5,1128C 1717.17,1128.67 1683.83,1128.67 1650.5,1128C 1624.68,1123.51 1609.51,1108.35 1605,1082.5C 1604.33,1025.17 1604.33,967.833 1605,910.5C 1609.68,884.652 1624.85,869.319 1650.5,864.5 Z"/></g>
<g><path style="opacity:1" fill="#fd0101" d="M 1693.5,1268.5 C 1721.71,1266.83 1739.55,1279.5 1747,1306.5C 1749.1,1335.72 1735.93,1353.55 1707.5,1360C 1679.3,1361.12 1662.13,1347.96 1656,1320.5C 1654.84,1293.18 1667.34,1275.84 1693.5,1268.5 Z"/></g>
<g><path style="opacity:1" fill="#00ff00" d="M 1692.5,1413.5 C 1712.63,1411.16 1728.46,1418.16 1740,1434.5C 1751.88,1457.77 1748.04,1477.94 1728.5,1495C 1708.47,1507.15 1689.14,1506.15 1670.5,1492C 1654.78,1474.61 1652.28,1455.44 1663,1434.5C 1670.31,1423.93 1680.15,1416.93 1692.5,1413.5 Z"/></g>
<g><path style="opacity:1" fill="#fed202" d="M 104.5,1463.5 C 132.5,1463.5 160.5,1463.5 188.5,1463.5C 184.053,1531.94 197.387,1596.6 228.5,1657.5C 201.866,1625.35 177.7,1591.35 156,1555.5C 155.241,1553.94 154.074,1552.94 152.5,1552.5C 152.5,1552.17 152.5,1551.83 152.5,1551.5C 140.54,1530.02 128.54,1508.02 116.5,1485.5C 116.043,1484.7 115.376,1484.37 114.5,1484.5C 113.596,1483.79 113.263,1482.79 113.5,1481.5C 113.938,1481.57 114.272,1481.4 114.5,1481C 112.85,1477.52 110.85,1474.35 108.5,1471.5C 107.043,1468.97 105.709,1466.31 104.5,1463.5 Z"/></g>
<g><path style="opacity:1" fill="#fed202" d="M 1856.5,1463.5 C 1882.83,1463.5 1909.17,1463.5 1935.5,1463.5C 1935.05,1466.68 1933.72,1469.35 1931.5,1471.5C 1922.58,1488.51 1913.24,1505.35 1903.5,1522C 1903.73,1522.4 1904.06,1522.57 1904.5,1522.5C 1904.5,1522.83 1904.5,1523.17 1904.5,1523.5C 1902.57,1524.64 1901.07,1526.31 1900,1528.5C 1893.93,1539.23 1888.1,1549.56 1882.5,1559.5C 1882.5,1559.83 1882.5,1560.17 1882.5,1560.5C 1880.93,1560.94 1879.76,1561.94 1879,1563.5C 1862.47,1589.84 1844.64,1615.18 1825.5,1639.5C 1849.98,1583.41 1860.32,1524.75 1856.5,1463.5 Z"/></g>
<g><path style="opacity:0.822" fill="#ff4867" d="M 108.5,1471.5 C 110.85,1474.35 112.85,1477.52 114.5,1481C 114.272,1481.4 113.938,1481.57 113.5,1481.5C 111.326,1478.48 109.659,1475.15 108.5,1471.5 Z"/></g>
<g><path style="opacity:0.741" fill="#ff4867" d="M 114.5,1484.5 C 115.376,1484.37 116.043,1484.7 116.5,1485.5C 128.54,1508.02 140.54,1530.02 152.5,1551.5C 138.583,1530.01 125.917,1507.68 114.5,1484.5 Z"/></g>
<g><path style="opacity:0.744" fill="#ff4866" d="M 1931.5,1471.5 C 1923.77,1489.3 1914.77,1506.3 1904.5,1522.5C 1904.06,1522.57 1903.73,1522.4 1903.5,1522C 1913.24,1505.35 1922.58,1488.51 1931.5,1471.5 Z"/></g>
<g><path style="opacity:0.743" fill="#ff4967" d="M 1904.5,1523.5 C 1897.65,1535.87 1890.32,1547.87 1882.5,1559.5C 1888.1,1549.56 1893.93,1539.23 1900,1528.5C 1901.07,1526.31 1902.57,1524.64 1904.5,1523.5 Z"/></g>
<g><path style="opacity:0.758" fill="#fe4966" d="M 1882.5,1560.5 C 1864.36,1589.63 1844.69,1617.63 1823.5,1644.5C 1823.8,1642.6 1824.46,1640.93 1825.5,1639.5C 1844.64,1615.18 1862.47,1589.84 1879,1563.5C 1879.76,1561.94 1880.93,1560.94 1882.5,1560.5 Z"/></g>
<g><path style="opacity:0.849" fill="#fe4966" d="M 152.5,1552.5 C 154.074,1552.94 155.241,1553.94 156,1555.5C 177.7,1591.35 201.866,1625.35 228.5,1657.5C 230.008,1659.18 231.008,1661.18 231.5,1663.5C 202.478,1628.47 176.145,1591.47 152.5,1552.5 Z"/></g>
<g><path style="opacity:0.778" fill="#f75363" d="M 341.5,1779.5 C 344.475,1780.66 347.142,1782.32 349.5,1784.5C 351.5,1786.83 353.5,1789.17 355.5,1791.5C 350.533,1787.87 345.867,1783.87 341.5,1779.5 Z"/></g>
<g><path style="opacity:1" fill="#fed201" d="M 349.5,1784.5 C 395.66,1812.05 445.66,1827.88 499.5,1832C 846.5,1832.67 1193.5,1832.67 1540.5,1832C 1590.3,1828.63 1637.3,1815.47 1681.5,1792.5C 1672.5,1800.5 1663.5,1808.5 1654.5,1816.5C 1641.06,1826.09 1627.73,1835.92 1614.5,1846C 1613.75,1846.67 1613.41,1847.5 1613.5,1848.5C 1612.88,1848.39 1612.38,1848.06 1612,1847.5C 1607.61,1851.61 1602.78,1855.11 1597.5,1858C 1596.75,1858.67 1596.41,1859.5 1596.5,1860.5C 1596.17,1860.5 1595.83,1860.5 1595.5,1860.5C 1575.44,1873.41 1554.77,1886.25 1533.5,1899C 1531.94,1899.76 1530.94,1900.93 1530.5,1902.5C 1530.17,1902.5 1529.83,1902.5 1529.5,1902.5C 1529.57,1902.06 1529.4,1901.73 1529,1901.5C 1517.96,1908.03 1506.8,1914.37 1495.5,1920.5C 1494.7,1920.96 1494.37,1921.62 1494.5,1922.5C 1494.17,1922.5 1493.83,1922.5 1493.5,1922.5C 1475.77,1931.1 1457.61,1939.77 1439,1948.5C 1437.97,1948.84 1437.47,1949.5 1437.5,1950.5C 1436.88,1950.39 1436.38,1950.06 1436,1949.5C 1418.51,1957.78 1400.68,1965.28 1382.5,1972C 1381.06,1972.38 1380.06,1973.21 1379.5,1974.5C 1379.17,1974.5 1378.83,1974.5 1378.5,1974.5C 1353.63,1982.84 1328.29,1991.01 1302.5,1999C 1301.94,1999.38 1301.61,1999.88 1301.5,2000.5C 1301.17,2000.5 1300.83,2000.5 1300.5,2000.5C 1300.57,2000.06 1300.4,1999.73 1300,1999.5C 1277.79,2005.76 1255.62,2011.76 1233.5,2017.5C 1233.17,2017.5 1232.83,2017.5 1232.5,2017.5C 1232.44,2016.96 1232.11,2016.62 1231.5,2016.5C 1212.06,2020.65 1192.73,2024.65 1173.5,2028.5C 1173.17,2028.5 1172.83,2028.5 1172.5,2028.5C 1172.26,2027.9 1171.76,2027.57 1171,2027.5C 1148.72,2030.77 1126.56,2033.77 1104.5,2036.5C 1103.42,2035.98 1102.26,2035.65 1101,2035.5C 1092.3,2036.03 1083.8,2037.03 1075.5,2038.5C 1075.17,2038.5 1074.83,2038.5 1074.5,2038.5C 1038.17,2039.83 1001.83,2039.83 965.5,2038.5C 965.167,2038.5 964.833,2038.5 964.5,2038.5C 956.2,2037.03 947.7,2036.03 939,2035.5C 937.744,2035.65 936.577,2035.98 935.5,2036.5C 913.443,2033.77 891.276,2030.77 869,2027.5C 868.235,2027.57 867.735,2027.9 867.5,2028.5C 867.167,2028.5 866.833,2028.5 866.5,2028.5C 847.271,2024.65 827.938,2020.65 808.5,2016.5C 807.893,2016.62 807.56,2016.96 807.5,2017.5C 807.167,2017.5 806.833,2017.5 806.5,2017.5C 784.378,2011.76 762.211,2005.76 740,1999.5C 739.601,1999.73 739.435,2000.06 739.5,2000.5C 739.167,2000.5 738.833,2000.5 738.5,2000.5C 707.798,1990.21 677.131,1979.37 646.5,1968C 612.195,1954 578.862,1938.83 546.5,1922.5C 546.167,1922.5 545.833,1922.5 545.5,1922.5C 545.631,1921.62 545.298,1920.96 544.5,1920.5C 537.872,1917.03 531.372,1913.37 525,1909.5C 524.601,1909.73 524.435,1910.06 524.5,1910.5C 524.167,1910.5 523.833,1910.5 523.5,1910.5C 514.8,1903.97 505.466,1898.13 495.5,1893C 457.554,1869.21 420.887,1843.71 385.5,1816.5C 376.09,1807.42 366.09,1799.09 355.5,1791.5C 353.5,1789.17 351.5,1786.83 349.5,1784.5 Z"/></g>
<g><path style="opacity:0.758" fill="#fe4a66" d="M 1687.5,1789.5 C 1677.06,1799.22 1666.06,1808.22 1654.5,1816.5C 1663.5,1808.5 1672.5,1800.5 1681.5,1792.5C 1683.22,1790.98 1685.22,1789.98 1687.5,1789.5 Z"/></g>
<g><path style="opacity:0.816" fill="#ff4766" d="M 355.5,1791.5 C 366.09,1799.09 376.09,1807.42 385.5,1816.5C 381.383,1813.93 377.383,1811.1 373.5,1808C 367.304,1802.63 361.304,1797.13 355.5,1791.5 Z"/></g>
<g><path style="opacity:0.772" fill="#ff4867" d="M 1654.5,1816.5 C 1641.43,1827.9 1627.76,1838.57 1613.5,1848.5C 1613.41,1847.5 1613.75,1846.67 1614.5,1846C 1627.73,1835.92 1641.06,1826.09 1654.5,1816.5 Z"/></g>
<g><path style="opacity:0.749" fill="#ff4765" d="M 1613.5,1848.5 C 1608.05,1852.73 1602.38,1856.73 1596.5,1860.5C 1596.41,1859.5 1596.75,1858.67 1597.5,1858C 1602.78,1855.11 1607.61,1851.61 1612,1847.5C 1612.38,1848.06 1612.88,1848.39 1613.5,1848.5 Z"/></g>
<g><path style="opacity:0.737" fill="#ff4867" d="M 1595.5,1860.5 C 1574.72,1875.73 1553.05,1889.73 1530.5,1902.5C 1530.94,1900.93 1531.94,1899.76 1533.5,1899C 1554.77,1886.25 1575.44,1873.41 1595.5,1860.5 Z"/></g>
<g><path style="opacity:0.769" fill="#ff4867" d="M 385.5,1816.5 C 420.887,1843.71 457.554,1869.21 495.5,1893C 505.466,1898.13 514.8,1903.97 523.5,1910.5C 474.463,1883.43 428.463,1852.1 385.5,1816.5 Z"/></g>
<g><path style="opacity:0.737" fill="#ff4766" d="M 1529.5,1902.5 C 1518.36,1909.91 1506.69,1916.58 1494.5,1922.5C 1494.37,1921.62 1494.7,1920.96 1495.5,1920.5C 1506.8,1914.37 1517.96,1908.03 1529,1901.5C 1529.4,1901.73 1529.57,1902.06 1529.5,1902.5 Z"/></g>
<g><path style="opacity:0.727" fill="#ff4866" d="M 545.5,1922.5 C 537.976,1919.24 530.976,1915.24 524.5,1910.5C 524.435,1910.06 524.601,1909.73 525,1909.5C 531.372,1913.37 537.872,1917.03 544.5,1920.5C 545.298,1920.96 545.631,1921.62 545.5,1922.5 Z"/></g>
<g><path style="opacity:0.736" fill="#ff4866" d="M 738.5,2000.5 C 671.483,1981.65 607.483,1955.65 546.5,1922.5C 578.862,1938.83 612.195,1954 646.5,1968C 677.131,1979.37 707.798,1990.21 738.5,2000.5 Z"/></g>
<g><path style="opacity:0.726" fill="#ff4767" d="M 1493.5,1922.5 C 1475.43,1932.87 1456.76,1942.2 1437.5,1950.5C 1437.47,1949.5 1437.97,1948.84 1439,1948.5C 1457.61,1939.77 1475.77,1931.1 1493.5,1922.5 Z"/></g>
<g><path style="opacity:0.726" fill="#ff4766" d="M 1437.5,1950.5 C 1418.65,1959.46 1399.31,1967.46 1379.5,1974.5C 1380.06,1973.21 1381.06,1972.38 1382.5,1972C 1400.68,1965.28 1418.51,1957.78 1436,1949.5C 1436.38,1950.06 1436.88,1950.39 1437.5,1950.5 Z"/></g>
<g><path style="opacity:0.731" fill="#ff4867" d="M 1378.5,1974.5 C 1353.47,1984.73 1327.8,1993.4 1301.5,2000.5C 1301.61,1999.88 1301.94,1999.38 1302.5,1999C 1328.29,1991.01 1353.63,1982.84 1378.5,1974.5 Z"/></g>
<g><path style="opacity:0.709" fill="#ff4866" d="M 806.5,2017.5 C 783.703,2013.22 761.369,2007.55 739.5,2000.5C 739.435,2000.06 739.601,1999.73 740,1999.5C 762.211,2005.76 784.378,2011.76 806.5,2017.5 Z"/></g>
<g><path style="opacity:0.751" fill="#ff4867" d="M 1300.5,2000.5 C 1278.63,2007.55 1256.3,2013.22 1233.5,2017.5C 1255.62,2011.76 1277.79,2005.76 1300,1999.5C 1300.4,1999.73 1300.57,2000.06 1300.5,2000.5 Z"/></g>
<g><path style="opacity:0.723" fill="#ff4866" d="M 866.5,2028.5 C 846.492,2026 826.826,2022.33 807.5,2017.5C 807.56,2016.96 807.893,2016.62 808.5,2016.5C 827.938,2020.65 847.271,2024.65 866.5,2028.5 Z"/></g>
<g><path style="opacity:0.73" fill="#ff4867" d="M 1232.5,2017.5 C 1213.17,2022.33 1193.51,2026 1173.5,2028.5C 1192.73,2024.65 1212.06,2020.65 1231.5,2016.5C 1232.11,2016.62 1232.44,2016.96 1232.5,2017.5 Z"/></g>
<g><path style="opacity:0.715" fill="#ff4866" d="M 935.5,2036.5 C 912.535,2035.21 889.868,2032.54 867.5,2028.5C 867.735,2027.9 868.235,2027.57 869,2027.5C 891.276,2030.77 913.443,2033.77 935.5,2036.5 Z"/></g>
<g><path style="opacity:0.702" fill="#ff4867" d="M 1172.5,2028.5 C 1150.13,2032.54 1127.47,2035.21 1104.5,2036.5C 1126.56,2033.77 1148.72,2030.77 1171,2027.5C 1171.76,2027.57 1172.26,2027.9 1172.5,2028.5 Z"/></g>
<g><path style="opacity:0.696" fill="#ff4665" d="M 964.5,2038.5 C 954.635,2038.53 944.969,2037.86 935.5,2036.5C 936.577,2035.98 937.744,2035.65 939,2035.5C 947.7,2036.03 956.2,2037.03 964.5,2038.5 Z"/></g>
<g><path style="opacity:0.695" fill="#ff4664" d="M 1104.5,2036.5 C 1095.03,2037.86 1085.36,2038.53 1075.5,2038.5C 1083.8,2037.03 1092.3,2036.03 1101,2035.5C 1102.26,2035.65 1103.42,2035.98 1104.5,2036.5 Z"/></g>
<g><path style="opacity:0.675" fill="#ff4866" d="M 1074.5,2038.5 C 1038.17,2041.17 1001.83,2041.17 965.5,2038.5C 1001.83,2039.83 1038.17,2039.83 1074.5,2038.5 Z"/></g>
</svg>
